<svg width="72" height="86" viewBox="0 0 72 86" fill="none" xmlns="http://www.w3.org/2000/svg">
<path d="M3.90734 2.16746C3.99155 1.34333 3.39172 0.60697 2.56758 0.522764C1.74345 0.438558 1.00709 1.03839 0.922883 1.86253L3.90734 2.16746ZM71.376 73.3455C71.7851 72.6252 71.5328 71.7095 70.8124 71.3004L59.0734 64.6336C58.3531 64.2245 57.4375 64.4768 57.0284 65.1972C56.6192 65.9176 56.8716 66.8332 57.5919 67.2423L68.0266 73.1683L62.1005 83.603C61.6914 84.3234 61.9437 85.239 62.6641 85.6481C63.3845 86.0572 64.3001 85.8049 64.7092 85.0845L71.376 73.3455ZM0.922883 1.86253C-1.3664 24.2681 0.854854 46.4191 11.3435 60.9674C16.6212 68.2879 23.9703 73.6479 33.7724 76.1141C43.5435 78.5725 55.6566 78.1331 70.4702 74.0509L69.6732 71.1587C55.1876 75.1505 43.6246 75.4994 34.5044 73.2048C25.4154 70.9179 18.6583 65.9836 13.777 59.213C3.94766 45.5792 1.6397 24.3613 3.90734 2.16746L0.922883 1.86253Z" fill="#E15544"/>
</svg>
