<svg width="80" height="37" viewBox="0 0 80 37" fill="none" xmlns="http://www.w3.org/2000/svg">
<path d="M2.41952 6.98234C1.6187 7.19441 0.797587 6.71713 0.58552 5.9163C0.373454 5.11548 0.850735 4.29437 1.65156 4.0823L2.41952 6.98234ZM71.2708 35.702C70.8008 36.3842 69.8668 36.5562 69.1846 36.0863L58.0672 28.4277C57.385 27.9577 57.213 27.0237 57.6829 26.3414C58.1529 25.6592 59.0869 25.4872 59.7691 25.9571L69.6512 32.7648L76.4589 22.8827C76.9289 22.2005 77.8629 22.0284 78.5451 22.4984C79.2273 22.9684 79.3994 23.9024 78.9294 24.5846L71.2708 35.702ZM1.65156 4.0823C24.9159 -2.07835 41.4858 0.467657 52.7439 7.21191C63.9915 13.9499 69.6976 24.7367 71.5107 34.5793L68.5604 35.1228C66.8735 25.9653 61.5796 16.0021 51.2022 9.78545C40.8352 3.57503 25.1552 0.961697 2.41952 6.98234L1.65156 4.0823Z" fill="#E15544"/>
</svg>
