<svg width="25" height="20" viewBox="0 0 25 20" fill="none" xmlns="http://www.w3.org/2000/svg">
<path d="M21.6648 0H2.73272C1.43114 0 0.378043 1.125 0.378043 2.5L0.366211 17.5C0.366211 18.875 1.43114 20 2.73272 20H21.6648C22.9663 20 24.0313 18.875 24.0313 17.5V2.5C24.0313 1.125 22.9663 0 21.6648 0ZM21.1915 5.3125L12.8259 10.8375C12.4472 11.0875 11.9503 11.0875 11.5716 10.8375L3.20602 5.3125C2.9102 5.1125 2.73272 4.775 2.73272 4.4125C2.73272 3.575 3.59649 3.075 4.27094 3.5125L12.1987 8.75L20.1265 3.5125C20.801 3.075 21.6648 3.575 21.6648 4.4125C21.6648 4.775 21.4873 5.1125 21.1915 5.3125Z" fill="#E15544"/>
</svg>
