<?xml version="1.0" encoding="UTF-8" standalone="no"?>
<svg
   width="33.312515"
   height="50"
   viewBox="0 0 33.312515 50"
   fill="none"
   version="1.1"
   id="svg2"
   sodipodi:docname="location-hover.svg"
   xml:space="preserve"
   inkscape:version="1.3.2 (091e20e, 2023-11-25, custom)"
   xmlns:inkscape="http://www.inkscape.org/namespaces/inkscape"
   xmlns:sodipodi="http://sodipodi.sourceforge.net/DTD/sodipodi-0.dtd"
   xmlns="http://www.w3.org/2000/svg"
   xmlns:svg="http://www.w3.org/2000/svg"><defs
     id="defs2" /><sodipodi:namedview
     id="namedview2"
     pagecolor="#505050"
     bordercolor="#eeeeee"
     borderopacity="1"
     inkscape:showpageshadow="0"
     inkscape:pageopacity="0"
     inkscape:pagecheckerboard="0"
     inkscape:deskcolor="#505050"
     inkscape:zoom="9.9146342"
     inkscape:cx="-4.3874539"
     inkscape:cy="16.087331"
     inkscape:window-width="1920"
     inkscape:window-height="1009"
     inkscape:window-x="1912"
     inkscape:window-y="-8"
     inkscape:window-maximized="1"
     inkscape:current-layer="svg2" /><path
     d="M 0,17.0423 C 0,25.2266 9.33767,35.1965 16.7174,41 23.1935,35.6429 32.6064,27.0866 33.2842,17.0423 33.796,9.45643 27.3352,-0.21941799 16.7174,0.00379217 3.99109,0.27132701 0,10.2715 0,17.0423 Z"
     fill="#02f4bf"
     id="path1" /><path
     d="m 20.454658,15.1473 c -0.0677,2.2014 -1.8232,3.935 -3.921,3.8721 -2.0978,-0.0629 -3.7436,-1.8986 -3.6758,-4.1 0.0677,-2.2014 1.8233,-3.9351 3.9211,-3.8721 2.0978,0.0629 3.7435,1.8985 3.6757,4.1 z"
     fill="#e15544"
     id="path2" /><g
     style="fill:none"
     id="g2"
     transform="translate(6.1612297,41)"><path
       d="M 16.9378,1 C 23.7553,4.65217 18.1052,8 10.5747,8 3.04423,8 -2.6059,4.34783 3.75715,1"
       stroke="#02f4bf"
       stroke-width="2"
       stroke-linecap="round"
       id="path1-3" /></g></svg>
