<svg width="92" height="44" viewBox="0 0 92 44" fill="none" xmlns="http://www.w3.org/2000/svg">
<g clip-path="url(#clip0_3945_2801)">
<mask id="path-1-outside-1_3945_2801" maskUnits="userSpaceOnUse" x="3" y="8" width="86" height="34" fill="black">
<rect fill="white" x="3" y="8" width="86" height="34"/>
<path d="M12.7118 38.1765V36.7647V35.3529H14.1235H15.5353V36.7647V38.1765H14.1235H12.7118ZM9.88824 35.3529V33.9412V32.5294H11.3H12.7118V33.9412V35.3529H11.3H9.88824ZM7.06471 32.5294V31.1176V29.7059H8.47647H9.88824V31.1176V32.5294H8.47647H7.06471ZM4.24118 29.7059V28.2941V26.8824H5.65294H7.06471V28.2941V29.7059H5.65294H4.24118ZM7.06471 26.8824V25.4706V24.0588H8.47647H9.88824V25.4706V26.8824H8.47647H7.06471ZM9.88824 24.0588V22.6471V21.2353H11.3H12.7118V22.6471V24.0588H11.3H9.88824ZM12.7118 21.2353V19.8235V18.4118H14.1235H15.5353V19.8235V21.2353H14.1235H12.7118ZM25.0107 41V39.5882V38.1765V36.7647V35.3529V33.9412V32.5294V31.1176V29.7059V28.2941V26.8824V25.4706V24.0588V22.6471V21.2353V19.8235V18.4118V17V15.5882V14.1765V12.7647V11.3529V9.94118H26.4224H27.8342V11.3529V12.7647V14.1765V15.5882H29.246H30.6577V17V18.4118H32.0695V19.8235V21.2353H33.4813V22.6471V24.0588H34.893H36.3048V22.6471V21.2353H37.7165V19.8235V18.4118H39.1283V17V15.5882H40.5401H41.9518V14.1765V12.7647V11.3529V9.94118H43.3636H44.7754V11.3529V12.7647V14.1765V15.5882V17V18.4118V19.8235V21.2353V22.6471V24.0588V25.4706V26.8824V28.2941V29.7059V31.1176V32.5294V33.9412V35.3529V36.7647V38.1765V39.5882V41H43.3636H41.9518V39.5882V38.1765V36.7647V35.3529V33.9412V32.5294V31.1176V29.7059V28.2941V26.8824V25.4706V24.0588V22.6471V21.2353V19.8235V18.4118H40.5401V19.8235V21.2353H39.1283V22.6471V24.0588H37.7165V25.4706V26.8824H36.3048V28.2941V29.7059H34.893H33.4813V28.2941V26.8824H32.0695V25.4706V24.0588H30.6577V22.6471V21.2353H29.246V19.8235V18.4118H27.8342V19.8235V21.2353V22.6471V24.0588V25.4706V26.8824V28.2941V29.7059V31.1176V32.5294V33.9412V35.3529V36.7647V38.1765V39.5882V41H26.4224H25.0107ZM55.6404 41V39.5882V38.1765H57.0522H58.464H59.8757H61.2875H62.6993H64.111V39.5882V41H62.6993H61.2875H59.8757H58.464H57.0522H55.6404ZM52.8169 38.1765V36.7647V35.3529V33.9412V32.5294V31.1176V29.7059H54.2287H55.6404V31.1176V32.5294V33.9412V35.3529V36.7647V38.1765H54.2287H52.8169ZM64.111 38.1765V36.7647V35.3529V33.9412V32.5294V31.1176V29.7059H65.5228H66.9346V31.1176V32.5294V33.9412V35.3529V36.7647V38.1765H65.5228H64.111ZM61.2875 29.7059V28.2941V26.8824H62.6993H64.111V28.2941V29.7059H62.6993H61.2875ZM58.464 26.8824V25.4706V24.0588H59.8757H61.2875V25.4706V26.8824H59.8757H58.464ZM55.6404 24.0588V22.6471V21.2353H57.0522H58.464V22.6471V24.0588H57.0522H55.6404ZM52.8169 21.2353V19.8235V18.4118V17V15.5882V14.1765V12.7647H54.2287H55.6404V14.1765V15.5882V17V18.4118V19.8235V21.2353H54.2287H52.8169ZM64.111 18.4118V17V15.5882V14.1765V12.7647H65.5228H66.9346V14.1765V15.5882V17V18.4118H65.5228H64.111ZM55.6404 12.7647V11.3529V9.94118H57.0522H58.464H59.8757H61.2875H62.6993H64.111V11.3529V12.7647H62.6993H61.2875H59.8757H58.464H57.0522H55.6404ZM76.4099 38.1765V36.7647V35.3529H77.8217H79.2335V36.7647V38.1765H77.8217H76.4099ZM79.2335 35.3529V33.9412V32.5294H80.6452H82.057V33.9412V35.3529H80.6452H79.2335ZM82.057 32.5294V31.1176V29.7059H83.4687H84.8805V31.1176V32.5294H83.4687H82.057ZM84.8805 29.7059V28.2941V26.8824H86.2923H87.704V28.2941V29.7059H86.2923H84.8805ZM82.057 26.8824V25.4706V24.0588H83.4687H84.8805V25.4706V26.8824H83.4687H82.057ZM79.2335 24.0588V22.6471V21.2353H80.6452H82.057V22.6471V24.0588H80.6452H79.2335ZM76.4099 21.2353V19.8235V18.4118H77.8217H79.2335V19.8235V21.2353H77.8217H76.4099Z"/>
</mask>
<path d="M12.7118 38.1765V36.7647V35.3529H14.1235H15.5353V36.7647V38.1765H14.1235H12.7118ZM9.88824 35.3529V33.9412V32.5294H11.3H12.7118V33.9412V35.3529H11.3H9.88824ZM7.06471 32.5294V31.1176V29.7059H8.47647H9.88824V31.1176V32.5294H8.47647H7.06471ZM4.24118 29.7059V28.2941V26.8824H5.65294H7.06471V28.2941V29.7059H5.65294H4.24118ZM7.06471 26.8824V25.4706V24.0588H8.47647H9.88824V25.4706V26.8824H8.47647H7.06471ZM9.88824 24.0588V22.6471V21.2353H11.3H12.7118V22.6471V24.0588H11.3H9.88824ZM12.7118 21.2353V19.8235V18.4118H14.1235H15.5353V19.8235V21.2353H14.1235H12.7118ZM25.0107 41V39.5882V38.1765V36.7647V35.3529V33.9412V32.5294V31.1176V29.7059V28.2941V26.8824V25.4706V24.0588V22.6471V21.2353V19.8235V18.4118V17V15.5882V14.1765V12.7647V11.3529V9.94118H26.4224H27.8342V11.3529V12.7647V14.1765V15.5882H29.246H30.6577V17V18.4118H32.0695V19.8235V21.2353H33.4813V22.6471V24.0588H34.893H36.3048V22.6471V21.2353H37.7165V19.8235V18.4118H39.1283V17V15.5882H40.5401H41.9518V14.1765V12.7647V11.3529V9.94118H43.3636H44.7754V11.3529V12.7647V14.1765V15.5882V17V18.4118V19.8235V21.2353V22.6471V24.0588V25.4706V26.8824V28.2941V29.7059V31.1176V32.5294V33.9412V35.3529V36.7647V38.1765V39.5882V41H43.3636H41.9518V39.5882V38.1765V36.7647V35.3529V33.9412V32.5294V31.1176V29.7059V28.2941V26.8824V25.4706V24.0588V22.6471V21.2353V19.8235V18.4118H40.5401V19.8235V21.2353H39.1283V22.6471V24.0588H37.7165V25.4706V26.8824H36.3048V28.2941V29.7059H34.893H33.4813V28.2941V26.8824H32.0695V25.4706V24.0588H30.6577V22.6471V21.2353H29.246V19.8235V18.4118H27.8342V19.8235V21.2353V22.6471V24.0588V25.4706V26.8824V28.2941V29.7059V31.1176V32.5294V33.9412V35.3529V36.7647V38.1765V39.5882V41H26.4224H25.0107ZM55.6404 41V39.5882V38.1765H57.0522H58.464H59.8757H61.2875H62.6993H64.111V39.5882V41H62.6993H61.2875H59.8757H58.464H57.0522H55.6404ZM52.8169 38.1765V36.7647V35.3529V33.9412V32.5294V31.1176V29.7059H54.2287H55.6404V31.1176V32.5294V33.9412V35.3529V36.7647V38.1765H54.2287H52.8169ZM64.111 38.1765V36.7647V35.3529V33.9412V32.5294V31.1176V29.7059H65.5228H66.9346V31.1176V32.5294V33.9412V35.3529V36.7647V38.1765H65.5228H64.111ZM61.2875 29.7059V28.2941V26.8824H62.6993H64.111V28.2941V29.7059H62.6993H61.2875ZM58.464 26.8824V25.4706V24.0588H59.8757H61.2875V25.4706V26.8824H59.8757H58.464ZM55.6404 24.0588V22.6471V21.2353H57.0522H58.464V22.6471V24.0588H57.0522H55.6404ZM52.8169 21.2353V19.8235V18.4118V17V15.5882V14.1765V12.7647H54.2287H55.6404V14.1765V15.5882V17V18.4118V19.8235V21.2353H54.2287H52.8169ZM64.111 18.4118V17V15.5882V14.1765V12.7647H65.5228H66.9346V14.1765V15.5882V17V18.4118H65.5228H64.111ZM55.6404 12.7647V11.3529V9.94118H57.0522H58.464H59.8757H61.2875H62.6993H64.111V11.3529V12.7647H62.6993H61.2875H59.8757H58.464H57.0522H55.6404ZM76.4099 38.1765V36.7647V35.3529H77.8217H79.2335V36.7647V38.1765H77.8217H76.4099ZM79.2335 35.3529V33.9412V32.5294H80.6452H82.057V33.9412V35.3529H80.6452H79.2335ZM82.057 32.5294V31.1176V29.7059H83.4687H84.8805V31.1176V32.5294H83.4687H82.057ZM84.8805 29.7059V28.2941V26.8824H86.2923H87.704V28.2941V29.7059H86.2923H84.8805ZM82.057 26.8824V25.4706V24.0588H83.4687H84.8805V25.4706V26.8824H83.4687H82.057ZM79.2335 24.0588V22.6471V21.2353H80.6452H82.057V22.6471V24.0588H80.6452H79.2335ZM76.4099 21.2353V19.8235V18.4118H77.8217H79.2335V19.8235V21.2353H77.8217H76.4099Z" fill="#E15544"/>
<path d="M12.7118 38.1765H11.7118V39.1765H12.7118V38.1765ZM12.7118 35.3529V34.3529H11.7118V35.3529H12.7118ZM15.5353 35.3529H16.5353V34.3529H15.5353V35.3529ZM15.5353 38.1765V39.1765H16.5353V38.1765H15.5353ZM9.88824 35.3529H8.88824V36.3529H9.88824V35.3529ZM9.88824 32.5294V31.5294H8.88824V32.5294H9.88824ZM12.7118 32.5294H13.7118V31.5294H12.7118V32.5294ZM12.7118 35.3529V36.3529H13.7118V35.3529H12.7118ZM7.06471 32.5294H6.06471V33.5294H7.06471V32.5294ZM7.06471 29.7059V28.7059H6.06471V29.7059H7.06471ZM9.88824 29.7059H10.8882V28.7059H9.88824V29.7059ZM9.88824 32.5294V33.5294H10.8882V32.5294H9.88824ZM4.24118 29.7059H3.24118V30.7059H4.24118V29.7059ZM4.24118 26.8824V25.8824H3.24118V26.8824H4.24118ZM7.06471 26.8824H8.06471V25.8824H7.06471V26.8824ZM7.06471 29.7059V30.7059H8.06471V29.7059H7.06471ZM7.06471 26.8824H6.06471V27.8824H7.06471V26.8824ZM7.06471 24.0588V23.0588H6.06471V24.0588H7.06471ZM9.88824 24.0588H10.8882V23.0588H9.88824V24.0588ZM9.88824 26.8824V27.8824H10.8882V26.8824H9.88824ZM9.88824 24.0588H8.88824V25.0588H9.88824V24.0588ZM9.88824 21.2353V20.2353H8.88824V21.2353H9.88824ZM12.7118 21.2353H13.7118V20.2353H12.7118V21.2353ZM12.7118 24.0588V25.0588H13.7118V24.0588H12.7118ZM12.7118 21.2353H11.7118V22.2353H12.7118V21.2353ZM12.7118 18.4118V17.4118H11.7118V18.4118H12.7118ZM15.5353 18.4118H16.5353V17.4118H15.5353V18.4118ZM15.5353 21.2353V22.2353H16.5353V21.2353H15.5353ZM13.7118 38.1765V36.7647H11.7118V38.1765H13.7118ZM13.7118 36.7647V35.3529H11.7118V36.7647H13.7118ZM12.7118 36.3529H14.1235V34.3529H12.7118V36.3529ZM14.1235 36.3529H15.5353V34.3529H14.1235V36.3529ZM14.5353 35.3529V36.7647H16.5353V35.3529H14.5353ZM14.5353 36.7647V38.1765H16.5353V36.7647H14.5353ZM15.5353 37.1765H14.1235V39.1765H15.5353V37.1765ZM14.1235 37.1765H12.7118V39.1765H14.1235V37.1765ZM10.8882 35.3529V33.9412H8.88824V35.3529H10.8882ZM10.8882 33.9412V32.5294H8.88824V33.9412H10.8882ZM9.88824 33.5294H11.3V31.5294H9.88824V33.5294ZM11.3 33.5294H12.7118V31.5294H11.3V33.5294ZM11.7118 32.5294V33.9412H13.7118V32.5294H11.7118ZM11.7118 33.9412V35.3529H13.7118V33.9412H11.7118ZM12.7118 34.3529H11.3V36.3529H12.7118V34.3529ZM11.3 34.3529H9.88824V36.3529H11.3V34.3529ZM8.06471 32.5294V31.1176H6.06471V32.5294H8.06471ZM8.06471 31.1176V29.7059H6.06471V31.1176H8.06471ZM7.06471 30.7059H8.47647V28.7059H7.06471V30.7059ZM8.47647 30.7059H9.88824V28.7059H8.47647V30.7059ZM8.88824 29.7059V31.1176H10.8882V29.7059H8.88824ZM8.88824 31.1176V32.5294H10.8882V31.1176H8.88824ZM9.88824 31.5294H8.47647V33.5294H9.88824V31.5294ZM8.47647 31.5294H7.06471V33.5294H8.47647V31.5294ZM5.24118 29.7059V28.2941H3.24118V29.7059H5.24118ZM5.24118 28.2941V26.8824H3.24118V28.2941H5.24118ZM4.24118 27.8824H5.65294V25.8824H4.24118V27.8824ZM5.65294 27.8824H7.06471V25.8824H5.65294V27.8824ZM6.06471 26.8824V28.2941H8.06471V26.8824H6.06471ZM6.06471 28.2941V29.7059H8.06471V28.2941H6.06471ZM7.06471 28.7059H5.65294V30.7059H7.06471V28.7059ZM5.65294 28.7059H4.24118V30.7059H5.65294V28.7059ZM8.06471 26.8824V25.4706H6.06471V26.8824H8.06471ZM8.06471 25.4706V24.0588H6.06471V25.4706H8.06471ZM7.06471 25.0588H8.47647V23.0588H7.06471V25.0588ZM8.47647 25.0588H9.88824V23.0588H8.47647V25.0588ZM8.88824 24.0588V25.4706H10.8882V24.0588H8.88824ZM8.88824 25.4706V26.8824H10.8882V25.4706H8.88824ZM9.88824 25.8824H8.47647V27.8824H9.88824V25.8824ZM8.47647 25.8824H7.06471V27.8824H8.47647V25.8824ZM10.8882 24.0588V22.6471H8.88824V24.0588H10.8882ZM10.8882 22.6471V21.2353H8.88824V22.6471H10.8882ZM9.88824 22.2353H11.3V20.2353H9.88824V22.2353ZM11.3 22.2353H12.7118V20.2353H11.3V22.2353ZM11.7118 21.2353V22.6471H13.7118V21.2353H11.7118ZM11.7118 22.6471V24.0588H13.7118V22.6471H11.7118ZM12.7118 23.0588H11.3V25.0588H12.7118V23.0588ZM11.3 23.0588H9.88824V25.0588H11.3V23.0588ZM13.7118 21.2353V19.8235H11.7118V21.2353H13.7118ZM13.7118 19.8235V18.4118H11.7118V19.8235H13.7118ZM12.7118 19.4118H14.1235V17.4118H12.7118V19.4118ZM14.1235 19.4118H15.5353V17.4118H14.1235V19.4118ZM14.5353 18.4118V19.8235H16.5353V18.4118H14.5353ZM14.5353 19.8235V21.2353H16.5353V19.8235H14.5353ZM15.5353 20.2353H14.1235V22.2353H15.5353V20.2353ZM14.1235 20.2353H12.7118V22.2353H14.1235V20.2353ZM25.0107 41H24.0107V42H25.0107V41ZM25.0107 9.94118V8.94118H24.0107V9.94118H25.0107ZM27.8342 9.94118H28.8342V8.94118H27.8342V9.94118ZM27.8342 15.5882H26.8342V16.5882H27.8342V15.5882ZM30.6577 15.5882H31.6577V14.5882H30.6577V15.5882ZM30.6577 18.4118H29.6577V19.4118H30.6577V18.4118ZM32.0695 18.4118H33.0695V17.4118H32.0695V18.4118ZM32.0695 21.2353H31.0695V22.2353H32.0695V21.2353ZM33.4813 21.2353H34.4813V20.2353H33.4813V21.2353ZM33.4813 24.0588H32.4813V25.0588H33.4813V24.0588ZM36.3048 24.0588V25.0588H37.3048V24.0588H36.3048ZM36.3048 21.2353V20.2353H35.3048V21.2353H36.3048ZM37.7165 21.2353V22.2353H38.7165V21.2353H37.7165ZM37.7165 18.4118V17.4118H36.7165V18.4118H37.7165ZM39.1283 18.4118V19.4118H40.1283V18.4118H39.1283ZM39.1283 15.5882V14.5882H38.1283V15.5882H39.1283ZM41.9518 15.5882V16.5882H42.9518V15.5882H41.9518ZM41.9518 9.94118V8.94118H40.9518V9.94118H41.9518ZM44.7754 9.94118H45.7754V8.94118H44.7754V9.94118ZM44.7754 41V42H45.7754V41H44.7754ZM41.9518 41H40.9518V42H41.9518V41ZM41.9518 18.4118H42.9518V17.4118H41.9518V18.4118ZM40.5401 18.4118V17.4118H39.5401V18.4118H40.5401ZM40.5401 21.2353V22.2353H41.5401V21.2353H40.5401ZM39.1283 21.2353V20.2353H38.1283V21.2353H39.1283ZM39.1283 24.0588V25.0588H40.1283V24.0588H39.1283ZM37.7165 24.0588V23.0588H36.7165V24.0588H37.7165ZM37.7165 26.8824V27.8824H38.7165V26.8824H37.7165ZM36.3048 26.8824V25.8824H35.3048V26.8824H36.3048ZM36.3048 29.7059V30.7059H37.3048V29.7059H36.3048ZM33.4813 29.7059H32.4813V30.7059H33.4813V29.7059ZM33.4813 26.8824H34.4813V25.8824H33.4813V26.8824ZM32.0695 26.8824H31.0695V27.8824H32.0695V26.8824ZM32.0695 24.0588H33.0695V23.0588H32.0695V24.0588ZM30.6577 24.0588H29.6577V25.0588H30.6577V24.0588ZM30.6577 21.2353H31.6577V20.2353H30.6577V21.2353ZM29.246 21.2353H28.246V22.2353H29.246V21.2353ZM29.246 18.4118H30.246V17.4118H29.246V18.4118ZM27.8342 18.4118V17.4118H26.8342V18.4118H27.8342ZM27.8342 41V42H28.8342V41H27.8342ZM26.0107 41V39.5882H24.0107V41H26.0107ZM26.0107 39.5882V38.1765H24.0107V39.5882H26.0107ZM26.0107 38.1765V36.7647H24.0107V38.1765H26.0107ZM26.0107 36.7647V35.3529H24.0107V36.7647H26.0107ZM26.0107 35.3529V33.9412H24.0107V35.3529H26.0107ZM26.0107 33.9412V32.5294H24.0107V33.9412H26.0107ZM26.0107 32.5294V31.1176H24.0107V32.5294H26.0107ZM26.0107 31.1176V29.7059H24.0107V31.1176H26.0107ZM26.0107 29.7059V28.2941H24.0107V29.7059H26.0107ZM26.0107 28.2941V26.8824H24.0107V28.2941H26.0107ZM26.0107 26.8824V25.4706H24.0107V26.8824H26.0107ZM26.0107 25.4706V24.0588H24.0107V25.4706H26.0107ZM26.0107 24.0588V22.6471H24.0107V24.0588H26.0107ZM26.0107 22.6471V21.2353H24.0107V22.6471H26.0107ZM26.0107 21.2353V19.8235H24.0107V21.2353H26.0107ZM26.0107 19.8235V18.4118H24.0107V19.8235H26.0107ZM26.0107 18.4118V17H24.0107V18.4118H26.0107ZM26.0107 17V15.5882H24.0107V17H26.0107ZM26.0107 15.5882V14.1765H24.0107V15.5882H26.0107ZM26.0107 14.1765V12.7647H24.0107V14.1765H26.0107ZM26.0107 12.7647V11.3529H24.0107V12.7647H26.0107ZM26.0107 11.3529V9.94118H24.0107V11.3529H26.0107ZM25.0107 10.9412H26.4224V8.94118H25.0107V10.9412ZM26.4224 10.9412H27.8342V8.94118H26.4224V10.9412ZM26.8342 9.94118V11.3529H28.8342V9.94118H26.8342ZM26.8342 11.3529V12.7647H28.8342V11.3529H26.8342ZM26.8342 12.7647V14.1765H28.8342V12.7647H26.8342ZM26.8342 14.1765V15.5882H28.8342V14.1765H26.8342ZM27.8342 16.5882H29.246V14.5882H27.8342V16.5882ZM29.246 16.5882H30.6577V14.5882H29.246V16.5882ZM29.6577 15.5882V17H31.6577V15.5882H29.6577ZM29.6577 17V18.4118H31.6577V17H29.6577ZM30.6577 19.4118H32.0695V17.4118H30.6577V19.4118ZM31.0695 18.4118V19.8235H33.0695V18.4118H31.0695ZM31.0695 19.8235V21.2353H33.0695V19.8235H31.0695ZM32.0695 22.2353H33.4813V20.2353H32.0695V22.2353ZM32.4813 21.2353V22.6471H34.4813V21.2353H32.4813ZM32.4813 22.6471V24.0588H34.4813V22.6471H32.4813ZM33.4813 25.0588H34.893V23.0588H33.4813V25.0588ZM34.893 25.0588H36.3048V23.0588H34.893V25.0588ZM37.3048 24.0588V22.6471H35.3048V24.0588H37.3048ZM37.3048 22.6471V21.2353H35.3048V22.6471H37.3048ZM36.3048 22.2353H37.7165V20.2353H36.3048V22.2353ZM38.7165 21.2353V19.8235H36.7165V21.2353H38.7165ZM38.7165 19.8235V18.4118H36.7165V19.8235H38.7165ZM37.7165 19.4118H39.1283V17.4118H37.7165V19.4118ZM40.1283 18.4118V17H38.1283V18.4118H40.1283ZM40.1283 17V15.5882H38.1283V17H40.1283ZM39.1283 16.5882H40.5401V14.5882H39.1283V16.5882ZM40.5401 16.5882H41.9518V14.5882H40.5401V16.5882ZM42.9518 15.5882V14.1765H40.9518V15.5882H42.9518ZM42.9518 14.1765V12.7647H40.9518V14.1765H42.9518ZM42.9518 12.7647V11.3529H40.9518V12.7647H42.9518ZM42.9518 11.3529V9.94118H40.9518V11.3529H42.9518ZM41.9518 10.9412H43.3636V8.94118H41.9518V10.9412ZM43.3636 10.9412H44.7754V8.94118H43.3636V10.9412ZM43.7754 9.94118V11.3529H45.7754V9.94118H43.7754ZM43.7754 11.3529V12.7647H45.7754V11.3529H43.7754ZM43.7754 12.7647V14.1765H45.7754V12.7647H43.7754ZM43.7754 14.1765V15.5882H45.7754V14.1765H43.7754ZM43.7754 15.5882V17H45.7754V15.5882H43.7754ZM43.7754 17V18.4118H45.7754V17H43.7754ZM43.7754 18.4118V19.8235H45.7754V18.4118H43.7754ZM43.7754 19.8235V21.2353H45.7754V19.8235H43.7754ZM43.7754 21.2353V22.6471H45.7754V21.2353H43.7754ZM43.7754 22.6471V24.0588H45.7754V22.6471H43.7754ZM43.7754 24.0588V25.4706H45.7754V24.0588H43.7754ZM43.7754 25.4706V26.8824H45.7754V25.4706H43.7754ZM43.7754 26.8824V28.2941H45.7754V26.8824H43.7754ZM43.7754 28.2941V29.7059H45.7754V28.2941H43.7754ZM43.7754 29.7059V31.1176H45.7754V29.7059H43.7754ZM43.7754 31.1176V32.5294H45.7754V31.1176H43.7754ZM43.7754 32.5294V33.9412H45.7754V32.5294H43.7754ZM43.7754 33.9412V35.3529H45.7754V33.9412H43.7754ZM43.7754 35.3529V36.7647H45.7754V35.3529H43.7754ZM43.7754 36.7647V38.1765H45.7754V36.7647H43.7754ZM43.7754 38.1765V39.5882H45.7754V38.1765H43.7754ZM43.7754 39.5882V41H45.7754V39.5882H43.7754ZM44.7754 40H43.3636V42H44.7754V40ZM43.3636 40H41.9518V42H43.3636V40ZM42.9518 41V39.5882H40.9518V41H42.9518ZM42.9518 39.5882V38.1765H40.9518V39.5882H42.9518ZM42.9518 38.1765V36.7647H40.9518V38.1765H42.9518ZM42.9518 36.7647V35.3529H40.9518V36.7647H42.9518ZM42.9518 35.3529V33.9412H40.9518V35.3529H42.9518ZM42.9518 33.9412V32.5294H40.9518V33.9412H42.9518ZM42.9518 32.5294V31.1176H40.9518V32.5294H42.9518ZM42.9518 31.1176V29.7059H40.9518V31.1176H42.9518ZM42.9518 29.7059V28.2941H40.9518V29.7059H42.9518ZM42.9518 28.2941V26.8824H40.9518V28.2941H42.9518ZM42.9518 26.8824V25.4706H40.9518V26.8824H42.9518ZM42.9518 25.4706V24.0588H40.9518V25.4706H42.9518ZM42.9518 24.0588V22.6471H40.9518V24.0588H42.9518ZM42.9518 22.6471V21.2353H40.9518V22.6471H42.9518ZM42.9518 21.2353V19.8235H40.9518V21.2353H42.9518ZM42.9518 19.8235V18.4118H40.9518V19.8235H42.9518ZM41.9518 17.4118H40.5401V19.4118H41.9518V17.4118ZM39.5401 18.4118V19.8235H41.5401V18.4118H39.5401ZM39.5401 19.8235V21.2353H41.5401V19.8235H39.5401ZM40.5401 20.2353H39.1283V22.2353H40.5401V20.2353ZM38.1283 21.2353V22.6471H40.1283V21.2353H38.1283ZM38.1283 22.6471V24.0588H40.1283V22.6471H38.1283ZM39.1283 23.0588H37.7165V25.0588H39.1283V23.0588ZM36.7165 24.0588V25.4706H38.7165V24.0588H36.7165ZM36.7165 25.4706V26.8824H38.7165V25.4706H36.7165ZM37.7165 25.8824H36.3048V27.8824H37.7165V25.8824ZM35.3048 26.8824V28.2941H37.3048V26.8824H35.3048ZM35.3048 28.2941V29.7059H37.3048V28.2941H35.3048ZM36.3048 28.7059H34.893V30.7059H36.3048V28.7059ZM34.893 28.7059H33.4813V30.7059H34.893V28.7059ZM34.4813 29.7059V28.2941H32.4813V29.7059H34.4813ZM34.4813 28.2941V26.8824H32.4813V28.2941H34.4813ZM33.4813 25.8824H32.0695V27.8824H33.4813V25.8824ZM33.0695 26.8824V25.4706H31.0695V26.8824H33.0695ZM33.0695 25.4706V24.0588H31.0695V25.4706H33.0695ZM32.0695 23.0588H30.6577V25.0588H32.0695V23.0588ZM31.6577 24.0588V22.6471H29.6577V24.0588H31.6577ZM31.6577 22.6471V21.2353H29.6577V22.6471H31.6577ZM30.6577 20.2353H29.246V22.2353H30.6577V20.2353ZM30.246 21.2353V19.8235H28.246V21.2353H30.246ZM30.246 19.8235V18.4118H28.246V19.8235H30.246ZM29.246 17.4118H27.8342V19.4118H29.246V17.4118ZM26.8342 18.4118V19.8235H28.8342V18.4118H26.8342ZM26.8342 19.8235V21.2353H28.8342V19.8235H26.8342ZM26.8342 21.2353V22.6471H28.8342V21.2353H26.8342ZM26.8342 22.6471V24.0588H28.8342V22.6471H26.8342ZM26.8342 24.0588V25.4706H28.8342V24.0588H26.8342ZM26.8342 25.4706V26.8824H28.8342V25.4706H26.8342ZM26.8342 26.8824V28.2941H28.8342V26.8824H26.8342ZM26.8342 28.2941V29.7059H28.8342V28.2941H26.8342ZM26.8342 29.7059V31.1176H28.8342V29.7059H26.8342ZM26.8342 31.1176V32.5294H28.8342V31.1176H26.8342ZM26.8342 32.5294V33.9412H28.8342V32.5294H26.8342ZM26.8342 33.9412V35.3529H28.8342V33.9412H26.8342ZM26.8342 35.3529V36.7647H28.8342V35.3529H26.8342ZM26.8342 36.7647V38.1765H28.8342V36.7647H26.8342ZM26.8342 38.1765V39.5882H28.8342V38.1765H26.8342ZM26.8342 39.5882V41H28.8342V39.5882H26.8342ZM27.8342 40H26.4224V42H27.8342V40ZM26.4224 40H25.0107V42H26.4224V40ZM55.6404 41H54.6404V42H55.6404V41ZM55.6404 38.1765V37.1765H54.6404V38.1765H55.6404ZM64.111 38.1765H65.111V37.1765H64.111V38.1765ZM64.111 41V42H65.111V41H64.111ZM52.8169 38.1765H51.8169V39.1765H52.8169V38.1765ZM52.8169 29.7059V28.7059H51.8169V29.7059H52.8169ZM55.6404 29.7059H56.6404V28.7059H55.6404V29.7059ZM55.6404 38.1765V39.1765H56.6404V38.1765H55.6404ZM64.111 38.1765H63.111V39.1765H64.111V38.1765ZM64.111 29.7059V28.7059H63.111V29.7059H64.111ZM66.9346 29.7059H67.9346V28.7059H66.9346V29.7059ZM66.9346 38.1765V39.1765H67.9346V38.1765H66.9346ZM61.2875 29.7059H60.2875V30.7059H61.2875V29.7059ZM61.2875 26.8824V25.8824H60.2875V26.8824H61.2875ZM64.111 26.8824H65.111V25.8824H64.111V26.8824ZM64.111 29.7059V30.7059H65.111V29.7059H64.111ZM58.464 26.8824H57.464V27.8824H58.464V26.8824ZM58.464 24.0588V23.0588H57.464V24.0588H58.464ZM61.2875 24.0588H62.2875V23.0588H61.2875V24.0588ZM61.2875 26.8824V27.8824H62.2875V26.8824H61.2875ZM55.6404 24.0588H54.6404V25.0588H55.6404V24.0588ZM55.6404 21.2353V20.2353H54.6404V21.2353H55.6404ZM58.464 21.2353H59.464V20.2353H58.464V21.2353ZM58.464 24.0588V25.0588H59.464V24.0588H58.464ZM52.8169 21.2353H51.8169V22.2353H52.8169V21.2353ZM52.8169 12.7647V11.7647H51.8169V12.7647H52.8169ZM55.6404 12.7647H56.6404V11.7647H55.6404V12.7647ZM55.6404 21.2353V22.2353H56.6404V21.2353H55.6404ZM64.111 18.4118H63.111V19.4118H64.111V18.4118ZM64.111 12.7647V11.7647H63.111V12.7647H64.111ZM66.9346 12.7647H67.9346V11.7647H66.9346V12.7647ZM66.9346 18.4118V19.4118H67.9346V18.4118H66.9346ZM55.6404 12.7647H54.6404V13.7647H55.6404V12.7647ZM55.6404 9.94118V8.94118H54.6404V9.94118H55.6404ZM64.111 9.94118H65.111V8.94118H64.111V9.94118ZM64.111 12.7647V13.7647H65.111V12.7647H64.111ZM56.6404 41V39.5882H54.6404V41H56.6404ZM56.6404 39.5882V38.1765H54.6404V39.5882H56.6404ZM55.6404 39.1765H57.0522V37.1765H55.6404V39.1765ZM57.0522 39.1765H58.464V37.1765H57.0522V39.1765ZM58.464 39.1765H59.8757V37.1765H58.464V39.1765ZM59.8757 39.1765H61.2875V37.1765H59.8757V39.1765ZM61.2875 39.1765H62.6993V37.1765H61.2875V39.1765ZM62.6993 39.1765H64.111V37.1765H62.6993V39.1765ZM63.111 38.1765V39.5882H65.111V38.1765H63.111ZM63.111 39.5882V41H65.111V39.5882H63.111ZM64.111 40H62.6993V42H64.111V40ZM62.6993 40H61.2875V42H62.6993V40ZM61.2875 40H59.8757V42H61.2875V40ZM59.8757 40H58.464V42H59.8757V40ZM58.464 40H57.0522V42H58.464V40ZM57.0522 40H55.6404V42H57.0522V40ZM53.8169 38.1765V36.7647H51.8169V38.1765H53.8169ZM53.8169 36.7647V35.3529H51.8169V36.7647H53.8169ZM53.8169 35.3529V33.9412H51.8169V35.3529H53.8169ZM53.8169 33.9412V32.5294H51.8169V33.9412H53.8169ZM53.8169 32.5294V31.1176H51.8169V32.5294H53.8169ZM53.8169 31.1176V29.7059H51.8169V31.1176H53.8169ZM52.8169 30.7059H54.2287V28.7059H52.8169V30.7059ZM54.2287 30.7059H55.6404V28.7059H54.2287V30.7059ZM54.6404 29.7059V31.1176H56.6404V29.7059H54.6404ZM54.6404 31.1176V32.5294H56.6404V31.1176H54.6404ZM54.6404 32.5294V33.9412H56.6404V32.5294H54.6404ZM54.6404 33.9412V35.3529H56.6404V33.9412H54.6404ZM54.6404 35.3529V36.7647H56.6404V35.3529H54.6404ZM54.6404 36.7647V38.1765H56.6404V36.7647H54.6404ZM55.6404 37.1765H54.2287V39.1765H55.6404V37.1765ZM54.2287 37.1765H52.8169V39.1765H54.2287V37.1765ZM65.111 38.1765V36.7647H63.111V38.1765H65.111ZM65.111 36.7647V35.3529H63.111V36.7647H65.111ZM65.111 35.3529V33.9412H63.111V35.3529H65.111ZM65.111 33.9412V32.5294H63.111V33.9412H65.111ZM65.111 32.5294V31.1176H63.111V32.5294H65.111ZM65.111 31.1176V29.7059H63.111V31.1176H65.111ZM64.111 30.7059H65.5228V28.7059H64.111V30.7059ZM65.5228 30.7059H66.9346V28.7059H65.5228V30.7059ZM65.9346 29.7059V31.1176H67.9346V29.7059H65.9346ZM65.9346 31.1176V32.5294H67.9346V31.1176H65.9346ZM65.9346 32.5294V33.9412H67.9346V32.5294H65.9346ZM65.9346 33.9412V35.3529H67.9346V33.9412H65.9346ZM65.9346 35.3529V36.7647H67.9346V35.3529H65.9346ZM65.9346 36.7647V38.1765H67.9346V36.7647H65.9346ZM66.9346 37.1765H65.5228V39.1765H66.9346V37.1765ZM65.5228 37.1765H64.111V39.1765H65.5228V37.1765ZM62.2875 29.7059V28.2941H60.2875V29.7059H62.2875ZM62.2875 28.2941V26.8824H60.2875V28.2941H62.2875ZM61.2875 27.8824H62.6993V25.8824H61.2875V27.8824ZM62.6993 27.8824H64.111V25.8824H62.6993V27.8824ZM63.111 26.8824V28.2941H65.111V26.8824H63.111ZM63.111 28.2941V29.7059H65.111V28.2941H63.111ZM64.111 28.7059H62.6993V30.7059H64.111V28.7059ZM62.6993 28.7059H61.2875V30.7059H62.6993V28.7059ZM59.464 26.8824V25.4706H57.464V26.8824H59.464ZM59.464 25.4706V24.0588H57.464V25.4706H59.464ZM58.464 25.0588H59.8757V23.0588H58.464V25.0588ZM59.8757 25.0588H61.2875V23.0588H59.8757V25.0588ZM60.2875 24.0588V25.4706H62.2875V24.0588H60.2875ZM60.2875 25.4706V26.8824H62.2875V25.4706H60.2875ZM61.2875 25.8824H59.8757V27.8824H61.2875V25.8824ZM59.8757 25.8824H58.464V27.8824H59.8757V25.8824ZM56.6404 24.0588V22.6471H54.6404V24.0588H56.6404ZM56.6404 22.6471V21.2353H54.6404V22.6471H56.6404ZM55.6404 22.2353H57.0522V20.2353H55.6404V22.2353ZM57.0522 22.2353H58.464V20.2353H57.0522V22.2353ZM57.464 21.2353V22.6471H59.464V21.2353H57.464ZM57.464 22.6471V24.0588H59.464V22.6471H57.464ZM58.464 23.0588H57.0522V25.0588H58.464V23.0588ZM57.0522 23.0588H55.6404V25.0588H57.0522V23.0588ZM53.8169 21.2353V19.8235H51.8169V21.2353H53.8169ZM53.8169 19.8235V18.4118H51.8169V19.8235H53.8169ZM53.8169 18.4118V17H51.8169V18.4118H53.8169ZM53.8169 17V15.5882H51.8169V17H53.8169ZM53.8169 15.5882V14.1765H51.8169V15.5882H53.8169ZM53.8169 14.1765V12.7647H51.8169V14.1765H53.8169ZM52.8169 13.7647H54.2287V11.7647H52.8169V13.7647ZM54.2287 13.7647H55.6404V11.7647H54.2287V13.7647ZM54.6404 12.7647V14.1765H56.6404V12.7647H54.6404ZM54.6404 14.1765V15.5882H56.6404V14.1765H54.6404ZM54.6404 15.5882V17H56.6404V15.5882H54.6404ZM54.6404 17V18.4118H56.6404V17H54.6404ZM54.6404 18.4118V19.8235H56.6404V18.4118H54.6404ZM54.6404 19.8235V21.2353H56.6404V19.8235H54.6404ZM55.6404 20.2353H54.2287V22.2353H55.6404V20.2353ZM54.2287 20.2353H52.8169V22.2353H54.2287V20.2353ZM65.111 18.4118V17H63.111V18.4118H65.111ZM65.111 17V15.5882H63.111V17H65.111ZM65.111 15.5882V14.1765H63.111V15.5882H65.111ZM65.111 14.1765V12.7647H63.111V14.1765H65.111ZM64.111 13.7647H65.5228V11.7647H64.111V13.7647ZM65.5228 13.7647H66.9346V11.7647H65.5228V13.7647ZM65.9346 12.7647V14.1765H67.9346V12.7647H65.9346ZM65.9346 14.1765V15.5882H67.9346V14.1765H65.9346ZM65.9346 15.5882V17H67.9346V15.5882H65.9346ZM65.9346 17V18.4118H67.9346V17H65.9346ZM66.9346 17.4118H65.5228V19.4118H66.9346V17.4118ZM65.5228 17.4118H64.111V19.4118H65.5228V17.4118ZM56.6404 12.7647V11.3529H54.6404V12.7647H56.6404ZM56.6404 11.3529V9.94118H54.6404V11.3529H56.6404ZM55.6404 10.9412H57.0522V8.94118H55.6404V10.9412ZM57.0522 10.9412H58.464V8.94118H57.0522V10.9412ZM58.464 10.9412H59.8757V8.94118H58.464V10.9412ZM59.8757 10.9412H61.2875V8.94118H59.8757V10.9412ZM61.2875 10.9412H62.6993V8.94118H61.2875V10.9412ZM62.6993 10.9412H64.111V8.94118H62.6993V10.9412ZM63.111 9.94118V11.3529H65.111V9.94118H63.111ZM63.111 11.3529V12.7647H65.111V11.3529H63.111ZM64.111 11.7647H62.6993V13.7647H64.111V11.7647ZM62.6993 11.7647H61.2875V13.7647H62.6993V11.7647ZM61.2875 11.7647H59.8757V13.7647H61.2875V11.7647ZM59.8757 11.7647H58.464V13.7647H59.8757V11.7647ZM58.464 11.7647H57.0522V13.7647H58.464V11.7647ZM57.0522 11.7647H55.6404V13.7647H57.0522V11.7647ZM76.4099 38.1765H75.4099V39.1765H76.4099V38.1765ZM76.4099 35.3529V34.3529H75.4099V35.3529H76.4099ZM79.2335 35.3529H80.2335V34.3529H79.2335V35.3529ZM79.2335 38.1765V39.1765H80.2335V38.1765H79.2335ZM79.2335 35.3529H78.2335V36.3529H79.2335V35.3529ZM79.2335 32.5294V31.5294H78.2335V32.5294H79.2335ZM82.057 32.5294H83.057V31.5294H82.057V32.5294ZM82.057 35.3529V36.3529H83.057V35.3529H82.057ZM82.057 32.5294H81.057V33.5294H82.057V32.5294ZM82.057 29.7059V28.7059H81.057V29.7059H82.057ZM84.8805 29.7059H85.8805V28.7059H84.8805V29.7059ZM84.8805 32.5294V33.5294H85.8805V32.5294H84.8805ZM84.8805 29.7059H83.8805V30.7059H84.8805V29.7059ZM84.8805 26.8824V25.8824H83.8805V26.8824H84.8805ZM87.704 26.8824H88.704V25.8824H87.704V26.8824ZM87.704 29.7059V30.7059H88.704V29.7059H87.704ZM82.057 26.8824H81.057V27.8824H82.057V26.8824ZM82.057 24.0588V23.0588H81.057V24.0588H82.057ZM84.8805 24.0588H85.8805V23.0588H84.8805V24.0588ZM84.8805 26.8824V27.8824H85.8805V26.8824H84.8805ZM79.2335 24.0588H78.2335V25.0588H79.2335V24.0588ZM79.2335 21.2353V20.2353H78.2335V21.2353H79.2335ZM82.057 21.2353H83.057V20.2353H82.057V21.2353ZM82.057 24.0588V25.0588H83.057V24.0588H82.057ZM76.4099 21.2353H75.4099V22.2353H76.4099V21.2353ZM76.4099 18.4118V17.4118H75.4099V18.4118H76.4099ZM79.2335 18.4118H80.2335V17.4118H79.2335V18.4118ZM79.2335 21.2353V22.2353H80.2335V21.2353H79.2335ZM77.4099 38.1765V36.7647H75.4099V38.1765H77.4099ZM77.4099 36.7647V35.3529H75.4099V36.7647H77.4099ZM76.4099 36.3529H77.8217V34.3529H76.4099V36.3529ZM77.8217 36.3529H79.2335V34.3529H77.8217V36.3529ZM78.2335 35.3529V36.7647H80.2335V35.3529H78.2335ZM78.2335 36.7647V38.1765H80.2335V36.7647H78.2335ZM79.2335 37.1765H77.8217V39.1765H79.2335V37.1765ZM77.8217 37.1765H76.4099V39.1765H77.8217V37.1765ZM80.2335 35.3529V33.9412H78.2335V35.3529H80.2335ZM80.2335 33.9412V32.5294H78.2335V33.9412H80.2335ZM79.2335 33.5294H80.6452V31.5294H79.2335V33.5294ZM80.6452 33.5294H82.057V31.5294H80.6452V33.5294ZM81.057 32.5294V33.9412H83.057V32.5294H81.057ZM81.057 33.9412V35.3529H83.057V33.9412H81.057ZM82.057 34.3529H80.6452V36.3529H82.057V34.3529ZM80.6452 34.3529H79.2335V36.3529H80.6452V34.3529ZM83.057 32.5294V31.1176H81.057V32.5294H83.057ZM83.057 31.1176V29.7059H81.057V31.1176H83.057ZM82.057 30.7059H83.4688V28.7059H82.057V30.7059ZM83.4688 30.7059H84.8805V28.7059H83.4688V30.7059ZM83.8805 29.7059V31.1176H85.8805V29.7059H83.8805ZM83.8805 31.1176V32.5294H85.8805V31.1176H83.8805ZM84.8805 31.5294H83.4688V33.5294H84.8805V31.5294ZM83.4688 31.5294H82.057V33.5294H83.4688V31.5294ZM85.8805 29.7059V28.2941H83.8805V29.7059H85.8805ZM85.8805 28.2941V26.8824H83.8805V28.2941H85.8805ZM84.8805 27.8824H86.2923V25.8824H84.8805V27.8824ZM86.2923 27.8824H87.704V25.8824H86.2923V27.8824ZM86.704 26.8824V28.2941H88.704V26.8824H86.704ZM86.704 28.2941V29.7059H88.704V28.2941H86.704ZM87.704 28.7059H86.2923V30.7059H87.704V28.7059ZM86.2923 28.7059H84.8805V30.7059H86.2923V28.7059ZM83.057 26.8824V25.4706H81.057V26.8824H83.057ZM83.057 25.4706V24.0588H81.057V25.4706H83.057ZM82.057 25.0588H83.4688V23.0588H82.057V25.0588ZM83.4688 25.0588H84.8805V23.0588H83.4688V25.0588ZM83.8805 24.0588V25.4706H85.8805V24.0588H83.8805ZM83.8805 25.4706V26.8824H85.8805V25.4706H83.8805ZM84.8805 25.8824H83.4688V27.8824H84.8805V25.8824ZM83.4688 25.8824H82.057V27.8824H83.4688V25.8824ZM80.2335 24.0588V22.6471H78.2335V24.0588H80.2335ZM80.2335 22.6471V21.2353H78.2335V22.6471H80.2335ZM79.2335 22.2353H80.6452V20.2353H79.2335V22.2353ZM80.6452 22.2353H82.057V20.2353H80.6452V22.2353ZM81.057 21.2353V22.6471H83.057V21.2353H81.057ZM81.057 22.6471V24.0588H83.057V22.6471H81.057ZM82.057 23.0588H80.6452V25.0588H82.057V23.0588ZM80.6452 23.0588H79.2335V25.0588H80.6452V23.0588ZM77.4099 21.2353V19.8235H75.4099V21.2353H77.4099ZM77.4099 19.8235V18.4118H75.4099V19.8235H77.4099ZM76.4099 19.4118H77.8217V17.4118H76.4099V19.4118ZM77.8217 19.4118H79.2335V17.4118H77.8217V19.4118ZM78.2335 18.4118V19.8235H80.2335V18.4118H78.2335ZM78.2335 19.8235V21.2353H80.2335V19.8235H78.2335ZM79.2335 20.2353H77.8217V22.2353H79.2335V20.2353ZM77.8217 20.2353H76.4099V22.2353H77.8217V20.2353Z" fill="#E15544" mask="url(#path-1-outside-1_3945_2801)"/>
</g>
<defs>
<clipPath id="clip0_3945_2801">
<rect width="92" height="44" fill="white"/>
</clipPath>
</defs>
</svg>
